Coordinates
version=1
nRows=10
nColumns=22
inDegrees=yes

Units are S.I. units (second, meters, Newtons, ...)
If the header above contains a line with 'inDegrees', this indicates whether rotational values are in degrees (yes) or radians (no).

endheader
time	pelvis_tilt	pelvis_list	pelvis_rotation	pelvis_tx	pelvis_ty	pelvis_tz	hip_flexion_r	hip_adduction_r	hip_rotation_r	knee_angle_r	ankle_angle_r	subtalar_angle_r	hip_flexion_l	hip_adduction_l	hip_rotation_l	knee_angle_l	ankle_angle_l	subtalar_angle_l	lumbar_extension	lumbar_bending	lumbar_rotation
      0.01000000	      0.54352102	      0.67128862	    -33.69148307	     -1.03065621	      0.90224681	     -0.45321158	     -6.54409537	     -1.61567710	     -9.31387002	     -3.30028153	     17.96929966	     -3.66282817	     -2.23008312	     -0.52473156	    -10.16663816	    -12.33705112	     17.97369546	      0.07723488	     -4.90720698	     -2.08205388	      3.33652998
      0.02000000	      0.53358308	      0.67227802	    -33.69205497	     -1.03037164	      0.90220946	     -0.45319723	     -6.55215830	     -1.62057973	     -9.31350782	     -3.30089257	     17.97126375	     -3.66307864	     -2.23698731	     -0.51960325	    -10.16641897	    -12.33942724	     17.97337619	      0.07808947	     -4.90477775	     -2.07981160	      3.33863138
      0.03000000	      0.52591138	      0.67881415	    -33.70209416	     -1.03001411	      0.90216036	     -0.45313747	     -6.58116854	     -1.63125670	     -9.31259256	     -3.26583432	     17.99174544	     -3.66356877	     -2.26411809	     -0.50401421	    -10.16814219	    -12.31272446	     17.98645043	      0.08485022	     -4.89626546	     -2.08710863	      3.35777454
      0.04000000	      0.51345018	      0.68001473	    -33.70649671	     -1.02963541	      0.90210858	     -0.45308976	     -6.59258122	     -1.63734669	     -9.31071154	     -3.26835169	     17.99245593	     -3.66374409	     -2.27471799	     -0.49791269	    -10.16748544	    -12.31755205	     17.98816652	      0.08556263	     -4.89246394	     -2.08357548	      3.35827431
      0.05000000	      0.53788700	      0.66992094	    -33.74222408	     -1.02921418	      0.90209669	     -0.45296366	     -6.67571747	     -1.65470536	     -9.25719376	     -3.21158279	     18.00540113	     -3.66690820	     -2.35753818	     -0.47483272	    -10.19300252	    -12.27768260	     18.03608151	      0.10023928	     -4.92787824	     -2.09497191	      3.39027466
      0.06000000	      0.52221575	      0.67149935	    -33.75515577	     -1.02879173	      0.90203289	     -0.45287225	     -6.68796522	     -1.65960138	     -9.26043571	     -3.21206462	     18.00640423	     -3.66741601	     -2.36846592	     -0.47092504	    -10.19403288	    -12.28546088	     18.03627251	      0.10047836	     -4.92058782	     -2.08988720	      3.38847090
      0.07000000	      0.50475214	      0.67327316	    -33.77907477	     -1.02833561	      0.90195766	     -0.45273266	     -6.72198182	     -1.66025523	     -9.26594451	     -3.16837536	     18.02504886	     -3.66911555	     -2.38912750	     -0.46921859	    -10.24003367	    -12.27938950	     18.05881241	      0.10340749	     -4.90745997	     -2.08225764	      3.38942676
      0.08000000	      0.48997280	      0.67460314	    -33.79998604	     -1.02791299	      0.90189205	     -0.45259453	     -6.73493678	     -1.66387598	     -9.26539189	     -3.17063475	     18.02594165	     -3.66962526	     -2.40021467	     -0.46746102	    -10.23935320	    -12.29456591	     18.06177582	      0.10414113	     -4.90312263	     -2.08216552	      3.38484744
      0.09000000	      0.48923064	      0.66935011	    -33.83569934	     -1.02750578	      0.90183186	     -0.45242876	     -6.78496987	     -1.66752934	     -9.21781341	     -3.12940765	     18.05537031	     -3.67561280	     -2.41131871	     -0.47133376	    -10.32826495	    -12.34488746	     18.12721908	      0.11367932	     -4.92329645	     -2.08251256	      3.36617250
      0.10000000	      0.47142230	      0.67145431	    -33.86434910	     -1.02709949	      0.90176481	     -0.45226214	     -6.79382346	     -1.66860409	     -9.21986121	     -3.13041871	     18.05530589	     -3.67698307	     -2.41985186	     -0.47049232	    -10.32568497	    -12.35936723	     18.12935729	      0.11452503	     -4.92410665	     -2.08267053	      3.36090339
